<svg width="32" height="32" viewBox="0 0 32 32" fill="none" xmlns="http://www.w3.org/2000/svg">
<path fill-rule="evenodd" clip-rule="evenodd" d="M6.89625 16C6.89625 14.9607 7.06875 13.9642 7.377 13.0297L1.9845 8.912C0.933499 11.0457 0.341499 13.4502 0.341499 16C0.341499 18.5477 0.932999 20.9505 1.98225 23.083L7.37175 18.9572C7.0665 18.027 6.89625 17.0342 6.89625 16Z" fill="#FBBC05"/>
<path fill-rule="evenodd" clip-rule="evenodd" d="M16.3643 6.5455C18.622 6.5455 20.6613 7.3455 22.2635 8.6545L26.9245 4C24.0842 1.52725 20.4428 0 16.3643 0C10.0323 0 4.59025 3.621 1.9845 8.912L7.37675 13.0297C8.61925 9.25825 12.161 6.5455 16.3643 6.5455Z" fill="#EA4335"/>
<path fill-rule="evenodd" clip-rule="evenodd" d="M16.3643 25.4545C12.1613 25.4545 8.6195 22.7417 7.377 18.9702L1.9845 23.0872C4.59025 28.379 10.0323 32 16.3643 32C20.2723 32 24.0035 30.6123 26.8037 28.0123L21.6852 24.0553C20.241 24.965 18.4223 25.4545 16.3643 25.4545Z" fill="#34A853"/>
<path fill-rule="evenodd" clip-rule="evenodd" d="M31.6585 16C31.6585 15.0545 31.5128 14.0362 31.2943 13.091H16.3643V19.2728H24.9583C24.5285 21.3805 23.359 23.0008 21.6852 24.0553L26.8037 28.0123C29.7452 25.2823 31.6585 21.2153 31.6585 16Z" fill="#4285F4"/>
</svg>
