<svg width="32" height="32" viewBox="0 0 32 32" fill="none" xmlns="http://www.w3.org/2000/svg">
<path d="M16 0C24.8 0 32 7.2 32 16C32 24.8 24.8 32 16 32C7.2 32 0 24.8 0 16C0 7.2 7.2 0 16 0Z" fill="url(#paint0_linear_2_29)"/>
<path d="M20.7 6H11.2C8.3 6 6 8.4 6 11.4V20.6C6 23.5 8.3 25.9 11.3 26H20.8C23.7 26 26.1 23.6 26.1 20.6V11.4C26 8.4 23.7 6 20.7 6ZM24.2 20.5C24.2 22.5 22.6 24.2 20.5 24.2H11.4C9.4 24.2 7.7 22.5 7.8 20.5V11.5C7.8 9.5 9.4 7.8 11.4 7.8H20.5C22.5 7.8 24.2 9.5 24.2 11.5V20.5Z" fill="white"/>
<path d="M16 10.9C13.2 10.8 10.8 13.1 10.8 15.9C10.7 18.7 13 21.1 15.8 21.1C18.6 21.1 21 18.9 21 16.1V16C21.1 13.2 18.8 10.9 16 10.9ZM16 19.3C14.2 19.3 12.7 17.9 12.6 16.1C12.6 14.3 14 12.8 15.8 12.7C17.6 12.6 19.1 14.1 19.2 15.9V16C19.3 17.8 17.8 19.3 16 19.3Z" fill="white"/>
<path d="M21.3 9.4C21.9 9.4 22.4 9.9 22.4 10.6C22.4 11.3 21.9 11.8 21.3 11.8C20.7 11.8 20.2 11.3 20.2 10.6C20.2 9.9 20.7 9.4 21.3 9.4Z" fill="white"/>
<defs>
<linearGradient id="paint0_linear_2_29" x1="7.99728" y1="29.8596" x2="24" y2="2.1422" gradientUnits="userSpaceOnUse">
<stop stop-color="#FEC053"/>
<stop offset="0.327" stop-color="#F2203E"/>
<stop offset="0.648" stop-color="#B729A8"/>
<stop offset="1" stop-color="#5342D6"/>
</linearGradient>
</defs>
</svg>
