<svg width="32" height="32" viewBox="0 0 32 32" fill="none" xmlns="http://www.w3.org/2000/svg">
<path d="M16 32C24.8366 32 32 24.8366 32 16C32 7.16344 24.8366 0 16 0C7.16344 0 0 7.16344 0 16C0 24.8366 7.16344 32 16 32Z" fill="#1CB7EB"/>
<path d="M24.6 10.4C24 10.7333 23.2667 10.9333 22.6 11C23.3333 10.5333 23.8667 9.8 24.1333 8.93333C23.4667 9.33333 22.7333 9.66667 21.8667 9.86667C21.2 9.13333 20.3333 8.66667 19.3333 8.66667C17.4 8.66667 15.8 10.3333 15.8 12.4667C15.8 12.7333 15.8 13.0667 15.8667 13.3333C12.9333 13.2 10.3333 11.6667 8.6 9.4C8.26666 9.93333 8.13333 10.6 8.13333 11.3333C8.13333 12.6667 8.73333 13.8 9.66666 14.4667C9.06666 14.4667 8.53333 14.2667 8.06666 14V14.0667C8.06666 15.8667 9.26666 17.4 10.8667 17.8C10.6 17.8667 10.2667 17.9333 9.93333 17.9333C9.73333 17.9333 9.46666 17.9333 9.26666 17.8667C9.73333 19.4 11 20.4667 12.5333 20.4667C11.3333 21.4667 9.8 22.0667 8.2 22.0667C7.93333 22.0667 7.66666 22.0667 7.33333 22C8.86666 23.0667 10.7333 23.7333 12.7333 23.7333C19.2 23.7333 22.7333 18 22.7333 13C22.7333 12.8667 22.7333 12.6667 22.7333 12.5333C23.5333 11.8667 24.1333 11.2 24.6 10.4Z" fill="white"/>
</svg>
